<mxfile host="Electron" agent="Mozilla/5.0 (Windows NT 10.0; Win64; x64) AppleWebKit/537.36 (KHTML, like Gecko) draw.io/27.0.9 Chrome/134.0.6998.205 Electron/35.4.0 Safari/537.36" version="27.0.9">
  <diagram name="Página-1" id="YlSej-O_Fk-oxXyYbU0X">
    <mxGraphModel dx="925" dy="933" grid="1" gridSize="10" guides="1" tooltips="1" connect="1" arrows="1" fold="1" page="1" pageScale="1" pageWidth="827" pageHeight="1169" math="0" shadow="0">
      <root>
        <mxCell id="0" />
        <mxCell id="1" parent="0" />
        <mxCell id="ZFdUGC7mnuIwLaOjv_D1-20" style="edgeStyle=orthogonalEdgeStyle;rounded=0;orthogonalLoop=1;jettySize=auto;html=1;exitX=0.5;exitY=1;exitDx=0;exitDy=0;entryX=0.5;entryY=0;entryDx=0;entryDy=0;" edge="1" parent="1" source="ZFdUGC7mnuIwLaOjv_D1-1" target="ZFdUGC7mnuIwLaOjv_D1-4">
          <mxGeometry relative="1" as="geometry" />
        </mxCell>
        <mxCell id="ZFdUGC7mnuIwLaOjv_D1-1" value="cigarros_m = cigarros *10" style="rounded=0;whiteSpace=wrap;html=1;" vertex="1" parent="1">
          <mxGeometry x="325" y="480" width="150" height="60" as="geometry" />
        </mxCell>
        <mxCell id="ZFdUGC7mnuIwLaOjv_D1-15" value="" style="edgeStyle=orthogonalEdgeStyle;rounded=0;orthogonalLoop=1;jettySize=auto;html=1;" edge="1" parent="1" source="ZFdUGC7mnuIwLaOjv_D1-2" target="ZFdUGC7mnuIwLaOjv_D1-10">
          <mxGeometry relative="1" as="geometry" />
        </mxCell>
        <mxCell id="ZFdUGC7mnuIwLaOjv_D1-2" value="&lt;div&gt;&lt;br&gt;&lt;/div&gt;cigarros(int)" style="shape=manualInput;whiteSpace=wrap;html=1;" vertex="1" parent="1">
          <mxGeometry x="360" y="190" width="80" height="80" as="geometry" />
        </mxCell>
        <mxCell id="ZFdUGC7mnuIwLaOjv_D1-19" style="edgeStyle=orthogonalEdgeStyle;rounded=0;orthogonalLoop=1;jettySize=auto;html=1;exitX=0.5;exitY=1;exitDx=0;exitDy=0;entryX=0.5;entryY=0;entryDx=0;entryDy=0;" edge="1" parent="1" source="ZFdUGC7mnuIwLaOjv_D1-3" target="ZFdUGC7mnuIwLaOjv_D1-1">
          <mxGeometry relative="1" as="geometry" />
        </mxCell>
        <mxCell id="ZFdUGC7mnuIwLaOjv_D1-3" value="&lt;div&gt;&lt;span style=&quot;background-color: transparent; color: light-dark(rgb(0, 0, 0), rgb(255, 255, 255));&quot;&gt;&lt;br&gt;&lt;/span&gt;&lt;/div&gt;&lt;div&gt;&lt;span style=&quot;background-color: transparent; color: light-dark(rgb(0, 0, 0), rgb(255, 255, 255));&quot;&gt;anos(int)&lt;/span&gt;&lt;/div&gt;" style="shape=manualInput;whiteSpace=wrap;html=1;" vertex="1" parent="1">
          <mxGeometry x="360" y="380" width="80" height="80" as="geometry" />
        </mxCell>
        <mxCell id="ZFdUGC7mnuIwLaOjv_D1-25" value="" style="edgeStyle=orthogonalEdgeStyle;rounded=0;orthogonalLoop=1;jettySize=auto;html=1;" edge="1" parent="1" source="ZFdUGC7mnuIwLaOjv_D1-4" target="ZFdUGC7mnuIwLaOjv_D1-24">
          <mxGeometry relative="1" as="geometry" />
        </mxCell>
        <mxCell id="ZFdUGC7mnuIwLaOjv_D1-4" value="cigarros_a = cigarros_m * anos* 365" style="rounded=0;whiteSpace=wrap;html=1;" vertex="1" parent="1">
          <mxGeometry x="290" y="560" width="230" height="60" as="geometry" />
        </mxCell>
        <mxCell id="ZFdUGC7mnuIwLaOjv_D1-27" style="edgeStyle=orthogonalEdgeStyle;rounded=0;orthogonalLoop=1;jettySize=auto;html=1;exitX=0;exitY=0;exitDx=130;exitDy=80;exitPerimeter=0;entryX=0.5;entryY=0;entryDx=0;entryDy=0;" edge="1" parent="1" source="ZFdUGC7mnuIwLaOjv_D1-8" target="ZFdUGC7mnuIwLaOjv_D1-12">
          <mxGeometry relative="1" as="geometry" />
        </mxCell>
        <mxCell id="ZFdUGC7mnuIwLaOjv_D1-8" value="&quot;Você perdeu &quot; + tempor_perdido + &quot; dias de vida&quot;" style="shape=display;whiteSpace=wrap;html=1;" vertex="1" parent="1">
          <mxGeometry x="250" y="740" width="310" height="80" as="geometry" />
        </mxCell>
        <mxCell id="ZFdUGC7mnuIwLaOjv_D1-9" value="&quot;Quantos cigarros você fuma por dia?" style="shape=display;whiteSpace=wrap;html=1;" vertex="1" parent="1">
          <mxGeometry x="340" y="120" width="120" height="60" as="geometry" />
        </mxCell>
        <mxCell id="ZFdUGC7mnuIwLaOjv_D1-16" value="" style="edgeStyle=orthogonalEdgeStyle;rounded=0;orthogonalLoop=1;jettySize=auto;html=1;entryX=0.496;entryY=0.19;entryDx=0;entryDy=0;entryPerimeter=0;" edge="1" parent="1" source="ZFdUGC7mnuIwLaOjv_D1-10" target="ZFdUGC7mnuIwLaOjv_D1-3">
          <mxGeometry relative="1" as="geometry" />
        </mxCell>
        <mxCell id="ZFdUGC7mnuIwLaOjv_D1-10" value="&quot;Quantos anos você tem?&quot;" style="shape=display;whiteSpace=wrap;html=1;" vertex="1" parent="1">
          <mxGeometry x="350" y="300" width="100" height="60" as="geometry" />
        </mxCell>
        <mxCell id="ZFdUGC7mnuIwLaOjv_D1-13" value="" style="edgeStyle=orthogonalEdgeStyle;rounded=0;orthogonalLoop=1;jettySize=auto;html=1;" edge="1" parent="1" source="ZFdUGC7mnuIwLaOjv_D1-11" target="ZFdUGC7mnuIwLaOjv_D1-9">
          <mxGeometry relative="1" as="geometry" />
        </mxCell>
        <mxCell id="ZFdUGC7mnuIwLaOjv_D1-11" value="Início" style="ellipse;whiteSpace=wrap;html=1;" vertex="1" parent="1">
          <mxGeometry x="340" y="10" width="120" height="80" as="geometry" />
        </mxCell>
        <mxCell id="ZFdUGC7mnuIwLaOjv_D1-12" value="Fim" style="ellipse;whiteSpace=wrap;html=1;" vertex="1" parent="1">
          <mxGeometry x="345" y="850" width="120" height="80" as="geometry" />
        </mxCell>
        <mxCell id="ZFdUGC7mnuIwLaOjv_D1-14" style="edgeStyle=orthogonalEdgeStyle;rounded=0;orthogonalLoop=1;jettySize=auto;html=1;exitX=0;exitY=0;exitDx=60;exitDy=60;exitPerimeter=0;entryX=0.488;entryY=0.163;entryDx=0;entryDy=0;entryPerimeter=0;" edge="1" parent="1" source="ZFdUGC7mnuIwLaOjv_D1-9" target="ZFdUGC7mnuIwLaOjv_D1-2">
          <mxGeometry relative="1" as="geometry" />
        </mxCell>
        <mxCell id="ZFdUGC7mnuIwLaOjv_D1-24" value="tempo_perdido = ((cigarro_a / 60) / 24)" style="rounded=0;whiteSpace=wrap;html=1;" vertex="1" parent="1">
          <mxGeometry x="290" y="650" width="230" height="60" as="geometry" />
        </mxCell>
        <mxCell id="ZFdUGC7mnuIwLaOjv_D1-26" style="edgeStyle=orthogonalEdgeStyle;rounded=0;orthogonalLoop=1;jettySize=auto;html=1;exitX=0.5;exitY=1;exitDx=0;exitDy=0;entryX=0.504;entryY=0;entryDx=0;entryDy=0;entryPerimeter=0;" edge="1" parent="1" source="ZFdUGC7mnuIwLaOjv_D1-24" target="ZFdUGC7mnuIwLaOjv_D1-8">
          <mxGeometry relative="1" as="geometry" />
        </mxCell>
      </root>
    </mxGraphModel>
  </diagram>
</mxfile>
